<?xml version="1.0" encoding="utf-8" ?>
<svg baseProfile="full" height="200mm" version="1.1" viewBox="0,0,200,200" width="200mm" xmlns="http://www.w3.org/2000/svg" xmlns:ev="http://www.w3.org/2001/xml-events" xmlns:xlink="http://www.w3.org/1999/xlink"><defs /><rect fill="#1a1a1a" height="200" width="200" x="0" y="0" /><text alignment-baseline="middle" fill="#e1ed5e" style="dominant-baseline: central; font-size:9.0px; font-family:Arial;" text-anchor="middle" x="100.0" y="100.0">2023</text><line stroke="#e1ed5e" stroke-width="0.3" x1="100.0" x2="100.0" y1="15.0" y2="10.0" /><path d="M 100.0 14.0 a86.0,86.0 0 0,1 42.46469731375804,11.215312516191453" fill="none" id="id85" stroke="none" /><text fill="#e1ed5e" style="font-size:6.75px; font-family:Arial;" text-anchor="middle"><textPath startOffset="22.20632615414155" xlink:href="#id85">January</textPath></text><line stroke="#e1ed5e" stroke-width="0.3" x1="143.23703022742887" x2="145.7803849466894" y1="26.81831364943548" y2="22.513508569990506" /><path d="M 143.74570117128098 25.957352633546492 a86.0,86.0 0 0,1 28.547481713284135,27.462654790039103" fill="none" id="id86" stroke="none" /><text fill="#e1ed5e" style="font-size:6.75px; font-family:Arial;" text-anchor="middle"><textPath startOffset="19.985693538727396" xlink:href="#id86">February</textPath></text><path d="M 111.60114157652 82.49532879139004 l 8.433459161459156 -12.725034756180005 a36.26596682080727,36.26596682080727 0 0,0 0.5173863529677127,0.3493415750867134 l -8.65125020883341 12.57798126879462" fill="#ffb610" stroke="none" /><path d="M 116.15771136456269 86.58626213691792 l 7.851084476868425 -6.517778832502133 a31.203968265941306,31.203968265941306 0 0,0 0.33953113342702257,0.41622502296841035 l -7.9621141023718565 6.381669639925622" fill="#ff710a" stroke="none" /><path d="M 116.38621287248628 86.86637796730983 l 8.134751662655708 -6.520039407428212 a31.425214553547406,31.425214553547406 0 0,0 0.3346724286361929,0.4249999978507208 l -8.245778171885865 6.379047015624452" fill="#ff740a" stroke="none" /><path d="M 116.82858285166822 87.43820079747576 l 7.37628817309145 -5.5060756872432615 a30.20469970646192,30.20469970646192 0 0,0 0.30742255262236223,0.4193240162884886 l -7.4699733382274385 5.378289227283279" fill="#ff6309" stroke="none" /><path d="M 117.45458315368197 88.32363383020206 l 8.37000768557305 -5.599175512831307 a31.070143746741735,31.070143746741735 0 0,0 0.29354385996507093,0.4470874376134468 l -8.465148180896048 5.454270011240186" fill="#ff700a" stroke="none" /><path d="M 117.65298651832404 88.62581576622439 l 8.76363012413979 -5.646588099139116 a31.425217988803393,31.425217988803393 0 0,0 0.2890707093996184,0.4572404417891771 l -8.859528429785362 5.4949000096357326" fill="#ff740a" stroke="none" /><line stroke="#e1ed5e" stroke-width="0.3" x1="172.23445277983987" x2="176.4835382374775" y1="55.19839476539836" y2="52.563006222186495" /><path d="M 173.08426987136738 54.67131705675599 a86.0,86.0 0 0,1 12.851231095245387,41.99856678651699" fill="none" id="id87" stroke="none" /><text fill="#e1ed5e" style="font-size:6.75px; font-family:Arial;" text-anchor="middle"><textPath startOffset="22.20632615414155" xlink:href="#id87">March</textPath></text><path d="M 117.84615892207809 88.93136811851018 l 7.18733733007285 -4.457765475586308 a29.457510918206843,29.457510918206843 0 0,0 0.2635524249210541,0.43321089012602526 l -7.263005553280129 4.3333868122532015" fill="#ff5908" stroke="none" /><path d="M 118.21658344932153 89.55222093294921 l 8.62400751513604 -4.946137426998301 a30.941719220933383,30.941719220933383 0 0,0 0.261004244060162,0.46429742654684053 l -8.707869400488635 4.796956490516667" fill="#ff6e0a" stroke="none" /><path d="M 118.56541770881063 90.18545643968196 l 14.252311259789295 -7.534434823302158 a37.121292887126174,37.121292887126174 0 0,0 0.2937718431781352,0.567473695320502 l -14.379892536127548 7.287988405721311" fill="#ffc111" stroke="none" /><path d="M 118.89224826269711 90.83032412892265 l 9.084041100859773 -4.409094742784038 a31.097520446770854,31.097520446770854 0 0,0 0.22959122557667955,0.48357767412697117 l -9.158590520278208 4.2520746530165265" fill="#ff700a" stroke="none" /><path d="M 119.04729006885535 91.15688171328212 l 8.405643189855407 -3.9025024943247977 a30.267381677333347,30.267381677333347 0 0,0 0.21532746162760222,0.47444551895976894 l -8.471572968446356 3.757234966522966" fill="#ff6409" stroke="none" /><path d="M 119.196687751892 91.48605970444005 l 6.3435339532080155 -2.813426463903773 a27.93943740394688,27.93943740394688 0 0,0 0.19119793889124098,0.44131120412658315 l -6.391022601941938 2.7038161151905866" fill="#ff4306" stroke="none" /><path d="M 119.34039704204932 91.81776055985345 l 8.819850042820457 -3.7313672888742806 a30.576682965532534,30.576682965532534 0 0,0 0.2009009112476058,0.48649749190341557 l -8.88277264095426 3.578995226517562" fill="#ff6909" stroke="none" /><path d="M 119.7369772167798 92.82701384747503 l 8.236753517459322 -2.9934735331338955 a29.763845748354523,29.763845748354523 0 0,0 0.17085428134362793,0.48302806084339706 l -8.28706087961276 2.851247845863884" fill="#ff5d08" stroke="none" /><path d="M 120.67395015179393 96.31383870115 l 9.092044111940387 -1.6211097002167938 a30.23543517077603,30.23543517077603 0 0,0 0.08694579267091153,0.5131589900628442 l -9.118601766131523 1.4643649218381116" fill="#ff6409" stroke="none" /><path d="M 120.73433829027371 96.67025291283417 l 9.872391353776594 -1.5854167079457249 a30.998882796590642,30.998882796590642 0 0,0 0.08007174769909126,0.5275727726835863 l -9.898218994914984 1.4152448228700565" fill="#ff6f0a" stroke="none" /><path d="M 120.87857604477298 97.74499172005257 l 11.401810514676464 -1.2314621965526216 a32.46812025373492,32.46812025373492 0 0,0 0.05523117043611705,0.5561703489190181 l -11.42131881079481 1.0350163169291686" fill="#ff830c" stroke="none" /><path d="M 120.91429891909075 98.10471618934814 l 11.463472780406796 -1.0388363702079988 a32.510446958793324,32.510446958793324 0 0,0 0.04570893941511,0.5577648373622978 l -11.479656203641401 0.8413576156379322" fill="#ff830c" stroke="none" /><path d="M 120.98425023603335 99.18683210126433 l 23.35664985096751 -0.9051015722354553 a44.37418022341669,44.37418022341669 0 0,0 0.02300760155013491,0.7635102856316035 l -23.368769146973293 0.5029211391788527" fill="#e2ff1b" stroke="none" /><line stroke="#e1ed5e" stroke-width="0.3" x1="184.98032266829074" x2="189.97916517819016" y1="98.17113171792111" y2="98.06355123074" /><path d="M 185.9800911702706 98.14961562048488 a86.0,86.0 0 0,1 -9.607161424134198,41.387399972396054" fill="none" id="id88" stroke="none" /><text fill="#e1ed5e" style="font-size:6.75px; font-family:Arial;" text-anchor="middle"><textPath startOffset="21.466115282336823" xlink:href="#id88">April</textPath></text><path d="M 120.9764740272857 100.99374915477107 l 26.03839413578658 1.2335548925131712 a47.067597258731155,47.067597258731155 0 0,0 -0.04530513788357521,0.8089536711813986 l -26.013302647015475 -1.681580280029993" fill="#c2ff1e" stroke="none" /><path d="M 120.92983693683757 101.71520430193887 l 10.241166633510261 0.8392656435728417 a31.275498082127484,31.275498082127484 0 0,0 -0.04858932150309358,0.53617911390378 l -10.225202715730092 -1.0154261460251923" fill="#ff720a" stroke="none" /><path d="M 120.8583938346157 102.4346265915055 l 22.919833199854786 2.6752412397464616 a44.07543433177382,44.07543433177382 0 0,0 -0.09444419162949891,0.7528131317561471 l -22.870387498978438 -3.0693721257900033" fill="#e5ff1a" stroke="none" /><path d="M 120.81339534386255 102.79330883721812 l 4.9841555006625065 0.6689098715541986 a26.028841464099557,26.028841464099557 0 0,0 -0.06341858925948045,0.44354946557295705 l -4.971902860386425 -0.754604809107565" fill="#ff2803" stroke="none" /><path d="M 120.70491114924044 103.5080841355445 l 11.36812823914196 1.9261299910496044 a32.53014815186681,32.53014815186681 0 0,0 -0.0982930300699626,0.5512795125295167 l -11.33328876673281 -2.1215282543123393" fill="#ff840c" stroke="none" /><path d="M 120.64145759157962 103.86396538481128 l 8.372055851039029 1.5672020187817544 a29.51747857881606,29.51747857881606 0 0,0 -0.09778728395798247,0.49861525416195157 l -8.343838634105383 -1.711081000011651" fill="#ff5a08" stroke="none" /><path d="M 120.49622156327973 104.57218783832717 l 15.70450843503686 3.5032780189214603 a37.09051093234774,37.09051093234774 0 0,0 -0.14436939871222607,0.6219395911540638 l -15.641878470394081 -3.7730862674240893" fill="#ffc111" stroke="none" /><path d="M 120.13307415673323 105.97154293290107 l 8.682107340731797 2.575144577009194 a30.055957015605188,30.055957015605188 0 0,0 -0.15138645614083354,0.4947396978299754 l -8.636494112084831 -2.7242112473912266" fill="#ff6109" stroke="none" /><path d="M 119.9155931802556 106.66101706037122 l 11.324776096776054 3.78771177452528 a32.94141173098841,32.94141173098841 0 0,0 -0.1844862886304027,0.5362035108774371 l -11.25789897720242 -3.982087988492018" fill="#ff890c" stroke="none" /><path d="M 119.54520255179757 107.68017299344265 l 10.806363682008142 4.246297386170878 a32.61070788193494,32.61070788193494 0 0,0 -0.20979149438405986,0.5206852841860061 l -10.73166957336669 -4.431682038199698" fill="#ff850c" stroke="none" /><line stroke="#e1ed5e" stroke-width="0.3" x1="174.80103733775053" x2="179.2010983576182" y1="140.37084112569926" y2="142.7455964860345" /><path d="M 175.68104954172406 140.8457921977663 a86.0,86.0 0 0,1 -30.038265399797805,32.042727171017184" fill="none" id="id89" stroke="none" /><text fill="#e1ed5e" style="font-size:6.75px; font-family:Arial;" text-anchor="middle"><textPath startOffset="22.206326154141568" xlink:href="#id89">May</textPath></text><path d="M 118.12598468904814 110.60418214915192 l 4.686697001331244 2.7418421416867313 a26.429809123000233,26.429809123000233 0 0,0 -0.23310981434405278,0.39070545729210165 l -4.638806311288964 -2.822109692864937" fill="#ff2e04" stroke="none" /><path d="M 117.94076556474637 110.91462005526583 l 9.588083803287779 5.8331006775191465 a32.22303054138871,32.22303054138871 0 0,0 -0.2923631778663683,0.4713825331830213 l -9.486255985753447 -5.997279542067441" fill="#ff7f0b" stroke="none" /><path d="M 117.75023020441432 111.22182372390056 l 9.829679013548455 6.214394060372976 a32.629328572492646,32.629328572492646 0 0,0 -0.304222087893634,0.4721594362974422 l -9.72125206227777 -6.382675096591872" fill="#ff850c" stroke="none" /><path d="M 117.55443506779139 111.5257021239791 l 9.567166783305577 6.281507441793217 a32.44499960685404,32.44499960685404 0 0,0 -0.3105401983775256,0.464215461926988 l -9.45762347951733 -6.445259817926011" fill="#ff820c" stroke="none" /><path d="M 117.14729908036423 112.12312394758627 l 9.431235747725914 6.667874597202107 a32.55027096535819,32.55027096535819 0 0,0 -0.3273940472158735,0.454721696890279 l -9.315061908134439 -6.829229899543517" fill="#ff840c" stroke="none" /><path d="M 116.71984013943494 112.70617746262583 l 5.878531300219431 4.46736699019139 a28.38339339820866,28.38339339820866 0 0,0 -0.2989625297095923,0.38644937020421344 l -5.8007619532917705 -4.567894354508856" fill="#ff4a06" stroke="none" /><path d="M 116.498646956653 112.99209946851258 l 9.039799252883718 7.118521377990416 a32.50614258304422,32.50614258304422 0 0,0 -0.3499550755341553,0.4366227647815988 l -8.915926265294708 -7.273071976350265" fill="#ff830c" stroke="none" /><path d="M 116.27256486870786 113.27417163493432 l 9.378795455923955 7.650652593205021 a33.10348252801542,33.10348252801542 0 0,0 -0.36398697777014083,0.4384457626427844 l -9.24571247826027 -7.810959612961576" fill="#ff8b0c" stroke="none" /><path d="M 115.80600337817218 113.82643327865902 l 25.945220036874584 22.69579761291039 a55.471055569100685,55.471055569100685 0 0,0 -0.6348560622237432,0.713267515971283 l -25.5507051250025 -23.13903929862254" fill="#64ff29" stroke="none" /><path d="M 115.32070863581623 114.36230785411682 l 7.2132466056544065 6.762015442019559 a30.88715224076659,30.88715224076659 0 0,0 -0.36695914907770477,0.38475520072462893 l -7.095780905197738 -6.8851777593266945" fill="#ff6d0a" stroke="none" /><path d="M 114.81725581225074 114.88116024355365 l 8.190399183825665 8.225723052740278 a32.60797822752933,32.60797822752933 0 0,0 -0.40115584419101274,0.39261542565399066 l -8.047593387258859 -8.365488581316841" fill="#ff850c" stroke="none" /><path d="M 114.55890576462653 115.13401014063108 l 8.061092287465566 8.379520713670637 a32.62744925845183,32.62744925845183 0 0,0 -0.40809817787750063,0.38588229938711455 l -7.9156582751972575 -8.517037649803672" fill="#ff850c" stroke="none" /><path d="M 114.0293411484842 115.62618273729858 l 26.76775614987378 29.814504090989914 a61.067660569226646,61.067660569226646 0 0,0 -0.7882312565425583,0.6955224378220909 l -26.250582540424634 -30.270849670584294" fill="#30ff35" stroke="none" /><path d="M 113.48314897796784 116.09983520530334 l 5.323079434493625 6.356134002533535 a29.29069442954521,29.29069442954521 0 0,0 -0.38932894147408026,0.32039121345378047 l -5.212880364474854 -6.446820334844493" fill="#ff5708" stroke="none" /><path d="M 113.20401910651253 116.32954008644616 l 6.587662418832253 8.147026801198614 a31.477181961001886,31.477181961001886 0 0,0 -0.42425621449686385,0.33705479551042605 l -6.446448711618038 -8.259215510714165" fill="#ff750a" stroke="none" /><path d="M 111.7513745106137 117.40417183066458 l 6.873276295164148 10.17954806670724 a33.282716550994266,33.282716550994266 0 0,0 -0.4775678376895585,0.31650592184239446 l -6.697033758734626 -10.296352009640952" fill="#ff8e0d" stroke="none" /><path d="M 111.1453310114006 117.79835938074945 l 6.118788960494254 9.771302869555008 a32.52900421162384,32.52900421162384 0 0,0 -0.47712428107950833,0.2930887028298806 l -5.949685479482437 -9.875180039213268" fill="#ff840c" stroke="none" /><line stroke="#e1ed5e" stroke-width="0.3" x1="143.8653032363475" x2="146.44561519142675" y1="172.8068346515853" y2="177.08958963109032" /><path d="M 144.38136562736335 173.6633856474863 a86.0,86.0 0 0,1 -40.68145358897372,12.25698825130547" fill="none" id="id90" stroke="none" /><text fill="#e1ed5e" style="font-size:6.75px; font-family:Arial;" text-anchor="middle"><textPath startOffset="21.466115282336833" xlink:href="#id90">June</textPath></text><path d="M 110.5260780823613 118.17145234162733 l 5.681294349311242 9.80777158401117 a32.33443818315018,32.33443818315018 0 0,0 -0.48401764351350113,0.27483785007150446 l -5.511627938876542 -9.904112599877303" fill="#ff810b" stroke="none" /><path d="M 108.2653958097858 119.30500536409082 l 10.272920197582211 23.993863582963847 a47.10054365379716,47.10054365379716 0 0,0 -0.7480655038917661,0.312691441296667 l -9.858383234192985 -24.167140067280485" fill="#c1ff1e" stroke="none" /><path d="M 106.91757812671514 119.82793768551818 l 5.738889436841687 16.44944806598226 a38.42180225016174,38.42180225016174 0 0,0 -0.6263307535871868,0.21248539768213143 l -5.454888950317273 -16.545796450562516" fill="#ffd213" stroke="none" /><path d="M 106.57524785965236 119.94407469862006 l 3.7608252391825157 11.407353927898521 a33.01130842647936,33.01130842647936 0 0,0 -0.5411947077074486,0.17327345504234576 l -3.563909186384127 -11.470400229600575" fill="#ff8a0c" stroke="none" /><path d="M 105.88484417918355 120.15858648285463 l 6.7692794171869775 23.188227318009204 a45.156097159508604,45.156097159508604 0 0,0 -0.7480189891349137,0.21139763808925544 l -6.369129259947458 -23.30131374943698" fill="#d8ff1c" stroke="none" /><path d="M 103.7750983002368 120.6578951692458 l 5.081131771026539 27.8047031147258 a49.265162574670924,49.265162574670924 0 0,0 -0.8355161105507487,0.14526518552463574 l -4.60176668900374 -27.88804687877144" fill="#a8ff21" stroke="none" /><path d="M 103.41894727170886 120.7198165907248 l 3.3220956048816763 20.1328672716257 a41.40511366753127,41.40511366753127 0 0,0 -0.7042105554883328,0.10998320594573235 l -2.9750491857848265 -20.187068784918537" fill="#fff817" stroke="none" /><path d="M 102.34483914955558 120.86867818915974 l 2.134066038126844 18.992832575541417 a40.112350119690504,40.112350119690504 0 0,0 -0.686813979837336,0.07119107722307619 l -1.8068194616839053 -19.02675302122025" fill="#ffe815" stroke="none" /><path d="M 101.26447882468166 120.96189622390904 l 0.8013637786867842 13.284607095465564 a34.308755373312906,34.308755373312906 0 0,0 -0.5898033356023382,0.030486095476874423 l -0.5725723746709663 -13.29643299770464" fill="#ff9c0e" stroke="none" /><line stroke="#e1ed5e" stroke-width="0.3" x1="102.19456741930631" x2="102.32365962044197" y1="184.97166512339345" y2="189.96999836594603" /><path d="M 102.22038585953345 185.97133177190398 a86.0,86.0 0 0,1 -42.740103519485714,-10.115201625700543" fill="none" id="id91" stroke="none" /><text fill="#e1ed5e" style="font-size:6.75px; font-family:Arial;" text-anchor="middle"><textPath startOffset="22.20632615414155" xlink:href="#id91">July</textPath></text><path d="M 100.54218724476979 120.99299961872073 l 0.6817257167277184 26.395803017117395 a47.40460503153402,47.40460503153402 0 0,0 -0.8159016734815833,0.014046487232437272 l -0.22726435335346723 -26.403626981628992" fill="#beff1f" stroke="none" /><path d="M 99.81925306533755 120.99922214144158 l -0.12716977293788845 14.774614665452573 a35.77516195050854,35.77516195050854 0 0,0 -0.6157421728348492,-0.010600559908513439 l 0.3814716356654056 -14.7702366282649" fill="#ffaf10" stroke="none" /><path d="M 99.45781275523022 120.99299961872073 l -0.4010105745820485 15.526766666889214 a36.53194426364416,36.53194426364416 0 0,0 -0.6284879988671859,-0.02164639744567767 l 0.6682189251238774 -15.517563471017443" fill="#ffb911" stroke="none" /><path d="M 98.73552117531835 120.96189622390904 l -3.793436474044945 62.885688671727095 a84.0,84.0 0 0,0 -1.4425489568842798,-0.09948662193485935 l 4.875348191708155 -62.81107370527595" fill="#4dd2ff" stroke="none" /><path d="M 98.37488393609728 120.93702456842531 l -0.8679694762565232 11.182400231392904 a32.21603521511809,32.21603521511809 0 0,0 -0.5525137210744464,-0.04767320871079549 l 1.0603275150725113 -11.165802770403445" fill="#ff7f0b" stroke="none" /><path d="M 98.01472825383883 120.90594882070398 l -1.3763031300766284 14.493191098293465 a35.55839271751905,35.55839271751905 0 0,0 -0.608839949443662,-0.0631087501561911 l 1.6255756761258837 -14.467352979681513" fill="#ffac10" stroke="none" /><path d="M 96.93821686468263 120.77559828337769 l -2.279638376319635 15.468388531991517 a36.63546593176666,36.63546593176666 0 0,0 -0.6230892643247158,-0.09731372860958977 l 2.545563504252868 -15.426856496034821" fill="#ffbb11" stroke="none" /><path d="M 96.58105272829116 120.7198165907248 l -1.7842872478969773 10.813300581589907 a31.959523276622043,31.959523276622043 0 0,0 -0.5420198612491381,-0.09423710052759177 l 1.9701560806181655 -10.78098490254131" fill="#ff7c0b" stroke="none" /><path d="M 96.22490169976321 120.6578951692458 l -0.4196042500524788 2.296136397192729 a23.33416153707821,23.33416153707821 0 0,0 -0.39449443011801333,-0.07560579643677222 l 0.45906629474218713 -2.2885734024074886" fill="#ff0000" stroke="none" /><path d="M 95.51606077576429 120.51570834832081 l -6.064170779511742 27.74586203453236 a49.40082793304428,49.40082793304428 0 0,0 -0.8291807833194451,-0.18871884670264125 l 6.54087171222405 -27.637366454252035" fill="#a7ff21" stroke="none" /><path d="M 93.08242187328487 119.8279376855182 l -13.495254584448693 38.68161111433903 a61.96814536563792,61.96814536563792 0 0,0 -1.0041213205704878,-0.3600421806311822 l 14.159095465648907 -38.44358139266789" fill="#31ff40" stroke="none" /><path d="M 92.40401165467489 119.57807347666478 l -7.3600114990220185 18.96986137500233 a41.34761435285576,41.34761435285576 0 0,0 -0.6613234389082578,-0.2631542445019136 l 7.685456013972134 -18.84036028609435" fill="#fff717" stroke="none" /><path d="M 92.06813273071674 119.44442032107085 l -10.044293273168586 24.622885583061798 a47.59274942148653,47.59274942148653 0 0,0 -0.7558828691929238,-0.3159591006265591 l 10.466647601858972 -24.446341439415264" fill="#bcff1f" stroke="none" /><path d="M 90.7491055286396 118.85261126421891 l -4.158814850667486 8.475344729336747 a30.44072080104208,30.44072080104208 0 0,0 -0.46841904638937415,-0.23487503407952223 l 4.304087804739621 -8.402501854347923" fill="#ff6709" stroke="none" /><line stroke="#e1ed5e" stroke-width="0.3" x1="58.666819895761336" x2="56.23545636021788" y1="174.27360380694188" y2="178.64263932499728" /><path d="M 58.180547188652646 175.14741091055294 a86.0,86.0 0 0,1 -31.652253787137756,-30.449443065178592" fill="none" id="id92" stroke="none" /><text fill="#e1ed5e" style="font-size:6.75px; font-family:Arial;" text-anchor="middle"><textPath startOffset="22.20632615414155" xlink:href="#id92">August</textPath></text><path d="M 89.7882731507175 118.34994917583269 l -12.891537069188992 23.165430637679318 a47.51092047884052,47.51092047884052 0 0,0 -0.7111960208205707,-0.40383566169790314 l 13.28838185693077 -22.940091810186782" fill="#bdff1f" stroke="none" /><path d="M 89.4739219176387 118.17145234162733 l -3.956818716801639 6.830762813483766 a28.894031604427767,28.894031604427767 0 0,0 -0.42822623670567933,-0.2530036087434143 l 4.0738128245357 -6.761640632446602" fill="#ff5107" stroke="none" /><path d="M 89.1626897886671 117.98757091392108 l -5.552624589587332 9.216145576338523 a31.759599393897247,31.759599393897247 0 0,0 -0.46583891500655206,-0.28615630924932434 l 5.7104427045261925 -9.11920080026082" fill="#ff790b" stroke="none" /><line stroke="#e1ed5e" stroke-width="0.3" x1="26.63291911575756" x2="22.317208475507996" y1="142.92168965132927" y2="145.44649492493687" /><path d="M 25.769776987707644 143.4266507060508 a86.0,86.0 0 0,1 -11.730757126820373,-40.83630448921669" fill="none" id="id93" stroke="none" /><text fill="#e1ed5e" style="font-size:6.75px; font-family:Arial;" text-anchor="middle"><textPath startOffset="21.46611528233685" xlink:href="#id93">September</textPath></text><line stroke="#e1ed5e" stroke-width="0.3" x1="15.007084014347285" x2="10.007500721073583" y1="101.09737516637583" y2="101.16192664675087" /><path d="M 14.007167355692545 101.11028546245083 a86.0,86.0 0 0,1 10.666146001902534,-42.60595125391555" fill="none" id="id94" stroke="none" /><text fill="#e1ed5e" style="font-size:6.75px; font-family:Arial;" text-anchor="middle"><textPath startOffset="22.20632615414155" xlink:href="#id94">October</textPath></text><line stroke="#e1ed5e" stroke-width="0.3" x1="26.266209847984243" x2="21.928928074336255" y1="57.711370442889674" y2="55.22380399835377" /><path d="M 25.398753493254645 57.213857153982495 a86.0,86.0 0 0,1 29.58750427330803,-30.492523968695096" fill="none" id="id95" stroke="none" /><text fill="#e1ed5e" style="font-size:6.75px; font-family:Arial;" text-anchor="middle"><textPath startOffset="21.46611528233685" xlink:href="#id95">November</textPath></text><line stroke="#e1ed5e" stroke-width="0.3" x1="56.762969772571076" x2="54.21961505331055" y1="26.818313649435495" y2="22.513508569990535" /><path d="M 56.25429882871897 25.957352633546506 a86.0,86.0 0 0,1 42.265352541879196,-11.944610805530505" fill="none" id="id96" stroke="none" /><text fill="#e1ed5e" style="font-size:6.75px; font-family:Arial;" text-anchor="middle"><textPath startOffset="22.20632615414155" xlink:href="#id96">December</textPath></text></svg>