<?xml version="1.0" encoding="utf-8" ?>
<svg baseProfile="full" height="200mm" version="1.1" viewBox="0,0,200,200" width="200mm" xmlns="http://www.w3.org/2000/svg" xmlns:ev="http://www.w3.org/2001/xml-events" xmlns:xlink="http://www.w3.org/1999/xlink"><defs /><rect fill="#1a1a1a" height="200" width="200" x="0" y="0" /><text alignment-baseline="middle" fill="#e1ed5e" style="dominant-baseline: central; font-size:9.0px; font-family:Arial;" text-anchor="middle" x="100.0" y="100.0">2023</text><line stroke="#e1ed5e" stroke-width="0.3" x1="100.0" x2="100.0" y1="15.0" y2="10.0" /><path d="M 100.0 14.0 a86.0,86.0 0 0,1 42.46469731375804,11.215312516191453" fill="none" id="id85" stroke="none" /><text fill="#e1ed5e" style="font-size:6.75px; font-family:Arial;" text-anchor="middle"><textPath startOffset="22.20632615414155" xlink:href="#id85">January</textPath></text><line stroke="#e1ed5e" stroke-width="0.3" x1="143.23703022742887" x2="145.7803849466894" y1="26.81831364943548" y2="22.513508569990506" /><path d="M 143.74570117128098 25.957352633546492 a86.0,86.0 0 0,1 28.547481713284135,27.462654790039103" fill="none" id="id86" stroke="none" /><text fill="#e1ed5e" style="font-size:6.75px; font-family:Arial;" text-anchor="middle"><textPath startOffset="19.985693538727396" xlink:href="#id86">February</textPath></text><path d="M 111.60114157652 82.49532879139004 l 20.38192940831817 -30.753781473696197 a57.89468960890611,57.89468960890611 0 0,0 0.8259512964580301,0.5576860023356034 l -20.90828539918274 30.398383559061926" fill="#80ff25" stroke="none" /><path d="M 116.15771136456269 86.58626213691792 l 18.974450047445085 -15.752125612961896 a45.660884329835355,45.660884329835355 0 0,0 0.4968371867853358,0.6090636443085851 l -19.242785726306828 15.42317779904521" fill="#ffd013" stroke="none" /><path d="M 116.38621287248628 86.86637796730983 l 19.660015062402998 -15.75758895578285 a46.19559092288416,46.19559092288416 0 0,0 0.4919740668787408,0.6247571041872896 l -19.928343209875703 15.416839457642523" fill="#ffd814" stroke="none" /><path d="M 116.82858285166822 87.43820079747576 l 17.826965419649916 -13.307048012648709 a43.24585855579262,43.24585855579262 0 0,0 0.4401550870152549,0.6003710440325718 l -18.053383119178797 12.998214524944643" fill="#ffaa0f" stroke="none" /><path d="M 117.45458315368197 88.32363383020206 l 20.22858029289535 -13.532051067354192 a45.33745809971937,45.33745809971937 0 0,0 0.4283382967287344,0.6523886125192516 l -20.458515224982012 13.181844390857266" fill="#ffcb12" stroke="none" /><path d="M 117.65298651832404 88.62581576622439 l 21.179884449683286 -13.646637498460407 a46.195599225188545,46.195599225188545 0 0,0 0.4249388069137209,0.672151143262293 l -21.411650852842964 13.280038707483907" fill="#ffd814" stroke="none" /><line stroke="#e1ed5e" stroke-width="0.3" x1="172.23445277983987" x2="176.4835382374775" y1="55.19839476539836" y2="52.563006222186495" /><path d="M 173.08426987136738 54.67131705675599 a86.0,86.0 0 0,1 12.851231095245387,41.99856678651699" fill="none" id="id87" stroke="none" /><text fill="#e1ed5e" style="font-size:6.75px; font-family:Arial;" text-anchor="middle"><textPath startOffset="22.20632615414155" xlink:href="#id87">March</textPath></text><path d="M 117.84615892207809 88.93136811851018 l 17.370310247636144 -10.77349869167065 a41.44005753804432,41.44005753804432 0 0,0 0.3707586728337336,0.6094297737095665 l -17.553184718756103 10.472901144754001" fill="#ff8d0d" stroke="none" /><path d="M 118.21658344932153 89.55222093294921 l 20.84244543373064 -11.953792856628645 a45.02708253861099,45.02708253861099 0 0,0 0.37981921936237406,0.6756560098782584 l -21.045122294385443 11.593253336815593" fill="#ffc612" stroke="none" /><path d="M 118.56541770881063 90.18545643968196 l 34.44489342284825 -18.209173218258503 a59.96183609898175,59.96183609898175 0 0,0 0.47452816809761783,0.9166373814822617 l -34.753231024105986 17.613563114515895" fill="#66ff29" stroke="none" /><path d="M 118.89224826269711 90.83032412892265 l 21.954251620274658 -10.655871580276019 a45.403621930804995,45.403621930804995 0 0,0 0.33521235953705025,0.7060427189949459 l -22.134422173653462 10.276386445640533" fill="#ffcc13" stroke="none" /><path d="M 119.04729006885535 91.15688171328212 l 20.31470394853979 -9.431542719577429 a43.39734793648641,43.39734793648641 0 0,0 0.3087363443641212,0.6802596102530786 l -20.474042609867258 9.080461100482287" fill="#ffac10" stroke="none" /><path d="M 119.196687751892 91.48605970444005 l 15.33101171870559 -6.7994708321869 a37.77118731386805,37.77118731386805 0 0,0 0.25847954844167237,0.5966064353328423 l -15.445781976989942 6.5345652522674555" fill="#ff5007" stroke="none" /><path d="M 119.34039704204932 91.81776055985345 l 21.315756384550454 -9.01794426489931 a44.144865283909816,44.144865283909816 0 0,0 0.2900492402147592,0.7023772416794016 l -21.467827311651412 8.649692452766605" fill="#ffb811" stroke="none" /><path d="M 119.7369772167798 92.82701384747503 l 19.906532483584776 -7.234607421451891 a42.180405568887075,42.180405568887075 0 0,0 0.24212942578676616,0.6845324921983219 l -20.02811499018135 6.890877302826954" fill="#ff990e" stroke="none" /><path d="M 120.67395015179393 96.31383870115 l 21.97359324555275 -3.917887410181247 a43.32013982661977,43.32013982661977 0 0,0 0.12457250489586745,0.7352339755405887 l -22.03777761196884 3.5390676463248205" fill="#ffab0f" stroke="none" /><path d="M 120.73433829027371 96.67025291283417 l 23.859531398875053 -3.8316248179385286 a45.16523509753934,45.16523509753934 0 0,0 0.11666418216523793,0.7686711958514687 l -23.92195147447959 3.4203545096949775" fill="#ffc812" stroke="none" /><path d="M 120.87857604477298 97.74499172005257 l 27.555821708271285 -2.976189850287393 a48.716078655592476,48.716078655592476 0 0,0 0.08287039786039962,0.8344935971687623 l -27.602969231813915 2.501420722414196" fill="#fffe18" stroke="none" /><path d="M 120.91429891909075 98.10471618934814 l 27.704846672193106 -2.51065300240447 a48.818373561878346,48.818373561878346 0 0,0 0.06863750850034232,0.8375514561379511 l -27.743958664512945 2.0333876290587503" fill="#ffff18" stroke="none" /><path d="M 120.98425023603335 99.18683210126433 l 56.448199886090194 -2.1874436099681094 a77.4905671765365,77.4905671765365 0 0,0 0.040178141534451955,1.3333169149452924 l -56.47748972208029 1.215456547597818" fill="#43ffe0" stroke="none" /><line stroke="#e1ed5e" stroke-width="0.3" x1="184.98032266829074" x2="189.97916517819016" y1="98.17113171792111" y2="98.06355123074" /><path d="M 185.9800911702706 98.14961562048488 a86.0,86.0 0 0,1 -9.607161424134198,41.387399972396054" fill="none" id="id88" stroke="none" /><text fill="#e1ed5e" style="font-size:6.75px; font-family:Arial;" text-anchor="middle"><textPath startOffset="21.466115282336823" xlink:href="#id88">April</textPath></text><path d="M 120.9764740272857 100.99374915477107 l 62.92942208185712 2.9812474643131925 a84.0,84.0 0 0,0 -0.0808545964498828,1.4437131346583068 l -62.86878113451971 -4.064032315306923" fill="#4dd2ff" stroke="none" /><path d="M 120.92983693683757 101.71520430193887 l 24.75078510333526 2.028331764538802 a45.83375712570532,45.83375712570532 0 0,0 -0.0712068966840291,0.7857621713332614 l -24.712203610374157 -2.454075324420634" fill="#ffd213" stroke="none" /><path d="M 120.8583938346157 102.4346265915055 l 55.39250423654643 6.465505678609322 a76.76856004305601,76.76856004305601 0 0,0 -0.1644985399633448,1.3112152150650616 l -55.27300418733624 -7.418038647961779" fill="#42ffd7" stroke="none" /><path d="M 120.81339534386255 102.79330883721812 l 12.045674690503565 1.6166170395240238 a33.153671437138556,33.153671437138556 0 0,0 -0.08077805054119012,0.5649614973454191 l -12.016062588945774 -1.8237240088498523" fill="#ff0000" stroke="none" /><path d="M 120.70491114924044 103.5080841355445 l 27.47441860319751 4.655058470932953 a48.86598727753119,48.86598727753119 0 0,0 -0.1476533686365379,0.8281185047134504 l -27.390218792221784 -5.127295726379622" fill="#feff18" stroke="none" /><path d="M 120.64145759157962 103.86396538481128 l 20.233530285910668 3.787603675293869 a41.58498699129936,41.58498699129936 0 0,0 -0.13776525391384914,0.7024620616772157 l -20.165335099021156 -4.13532946403903" fill="#ff8f0d" stroke="none" /><path d="M 120.49622156327973 104.57218783832717 l 37.95455413812392 8.466699596493418 a59.88744247030191,59.88744247030191 0 0,0 -0.2331031264470978,1.0042021678584756 l -37.80319044574627 -9.118770421700459" fill="#67ff28" stroke="none" /><path d="M 120.13307415673323 105.97154293290107 l 20.98286071543853 6.223592713257837 a42.8863781851637,42.8863781851637 0 0,0 -0.21601098267463562,0.7059363896925215 l -20.87262296025776 -6.583856075502415" fill="#ffa40f" stroke="none" /><path d="M 119.9155931802556 106.66101706037122 l 27.369645426677085 9.154117252412536 a49.85992642840488,49.85992642840488 0 0,0 -0.27923735792744503,0.8115944702470473 l -27.20801723780641 -9.623884425748885" fill="#efff19" stroke="none" /><path d="M 119.54520255179757 107.68017299344265 l 26.11674966470043 10.26242398459499 a49.060683510709794,49.060683510709794 0 0,0 -0.3156176230972546,0.7833370569145071 l -25.936229427345783 -10.710460409352311" fill="#fbff18" stroke="none" /><line stroke="#e1ed5e" stroke-width="0.3" x1="174.80103733775053" x2="179.2010983576182" y1="140.37084112569926" y2="142.7455964860345" /><path d="M 175.68104954172406 140.8457921977663 a86.0,86.0 0 0,1 -30.038265399797805,32.042727171017184" fill="none" id="id89" stroke="none" /><text fill="#e1ed5e" style="font-size:6.75px; font-family:Arial;" text-anchor="middle"><textPath startOffset="22.206326154141568" xlink:href="#id89">May</textPath></text><path d="M 118.12598468904814 110.60418214915192 l 11.326778918412682 6.626466306495022 a34.12272747479394,34.12272747479394 0 0,0 -0.30096103341282743,0.504428003246197 l -11.211037009301627 -6.820456403627324" fill="#ff1101" stroke="none" /><path d="M 117.94076556474637 110.91462005526583 l 23.17241875465941 14.09739988830845 a48.123747428262384,48.123747428262384 0 0,0 -0.4366321693700913,0.7039900837339613 l -22.926321945621357 -14.494186303407684" fill="#fff517" stroke="none" /><path d="M 117.75023020441432 111.22182372390056 l 23.756304492011918 15.018907263206431 a49.10568587488981,49.10568587488981 0 0,0 -0.4578406892779857,0.7105789170676773 l -23.494258939356882 -15.425607780195563" fill="#faff18" stroke="none" /><path d="M 117.55443506779139 111.5257021239791 l 23.121866636418538 15.181106448175772 a48.66020082615397,48.66020082615397 0 0,0 -0.46574044076893395,0.6962187664567318 l -22.857123090238883 -15.57686212883831" fill="#fffd17" stroke="none" /><path d="M 117.14729908036423 112.12312394758627 l 22.793349391176445 16.11487608368014 a48.91461996267565,48.91461996267565 0 0,0 -0.49198838973261116,0.6833288428180133 l -22.512581209068234 -16.504838531949286" fill="#fdff18" stroke="none" /><path d="M 116.71984013943494 112.70617746262583 l 14.207196322621515 10.796703569899973 a38.84413728163402,38.84413728163402 0 0,0 -0.409145636082996,0.5288758880240468 l -14.01924386932045 -11.039657452037273" fill="#ff6209" stroke="none" /><line stroke="#e1ed5e" stroke-width="0.3" x1="143.8653032363475" x2="146.44561519142675" y1="172.8068346515853" y2="177.08958963109032" /><path d="M 144.38136562736335 173.6633856474863 a86.0,86.0 0 0,1 -40.68145358897372,12.25698825130547" fill="none" id="id90" stroke="none" /><text fill="#e1ed5e" style="font-size:6.75px; font-family:Arial;" text-anchor="middle"><textPath startOffset="21.466115282336833" xlink:href="#id90">June</textPath></text><line stroke="#e1ed5e" stroke-width="0.3" x1="102.19456741930631" x2="102.32365962044197" y1="184.97166512339345" y2="189.96999836594603" /><path d="M 102.22038585953345 185.97133177190398 a86.0,86.0 0 0,1 -42.740103519485714,-10.115201625700543" fill="none" id="id91" stroke="none" /><text fill="#e1ed5e" style="font-size:6.75px; font-family:Arial;" text-anchor="middle"><textPath startOffset="22.20632615414155" xlink:href="#id91">July</textPath></text><line stroke="#e1ed5e" stroke-width="0.3" x1="58.666819895761336" x2="56.23545636021788" y1="174.27360380694188" y2="178.64263932499728" /><path d="M 58.180547188652646 175.14741091055294 a86.0,86.0 0 0,1 -31.652253787137756,-30.449443065178592" fill="none" id="id92" stroke="none" /><text fill="#e1ed5e" style="font-size:6.75px; font-family:Arial;" text-anchor="middle"><textPath startOffset="22.20632615414155" xlink:href="#id92">August</textPath></text><line stroke="#e1ed5e" stroke-width="0.3" x1="26.63291911575756" x2="22.317208475507996" y1="142.92168965132927" y2="145.44649492493687" /><path d="M 25.769776987707644 143.4266507060508 a86.0,86.0 0 0,1 -11.730757126820373,-40.83630448921669" fill="none" id="id93" stroke="none" /><text fill="#e1ed5e" style="font-size:6.75px; font-family:Arial;" text-anchor="middle"><textPath startOffset="21.46611528233685" xlink:href="#id93">September</textPath></text><line stroke="#e1ed5e" stroke-width="0.3" x1="15.007084014347285" x2="10.007500721073583" y1="101.09737516637583" y2="101.16192664675087" /><path d="M 14.007167355692545 101.11028546245083 a86.0,86.0 0 0,1 10.666146001902534,-42.60595125391555" fill="none" id="id94" stroke="none" /><text fill="#e1ed5e" style="font-size:6.75px; font-family:Arial;" text-anchor="middle"><textPath startOffset="22.20632615414155" xlink:href="#id94">October</textPath></text><line stroke="#e1ed5e" stroke-width="0.3" x1="26.266209847984243" x2="21.928928074336255" y1="57.711370442889674" y2="55.22380399835377" /><path d="M 25.398753493254645 57.213857153982495 a86.0,86.0 0 0,1 29.58750427330803,-30.492523968695096" fill="none" id="id95" stroke="none" /><text fill="#e1ed5e" style="font-size:6.75px; font-family:Arial;" text-anchor="middle"><textPath startOffset="21.46611528233685" xlink:href="#id95">November</textPath></text><line stroke="#e1ed5e" stroke-width="0.3" x1="56.762969772571076" x2="54.21961505331055" y1="26.818313649435495" y2="22.513508569990535" /><path d="M 56.25429882871897 25.957352633546506 a86.0,86.0 0 0,1 42.265352541879196,-11.944610805530505" fill="none" id="id96" stroke="none" /><text fill="#e1ed5e" style="font-size:6.75px; font-family:Arial;" text-anchor="middle"><textPath startOffset="22.20632615414155" xlink:href="#id96">December</textPath></text></svg>