<?xml version="1.0" encoding="utf-8" ?>
<svg baseProfile="full" height="200mm" version="1.1" viewBox="0,0,200,200" width="200mm" xmlns="http://www.w3.org/2000/svg" xmlns:ev="http://www.w3.org/2001/xml-events" xmlns:xlink="http://www.w3.org/1999/xlink"><defs /><rect fill="#1a1a1a" height="200" width="200" x="0" y="0" /><text alignment-baseline="middle" fill="#e1ed5e" style="dominant-baseline: central; font-size:9.0px; font-family:Arial;" text-anchor="middle" x="100.0" y="100.0">2023</text><line stroke="#e1ed5e" stroke-width="0.3" x1="100.0" x2="100.0" y1="15.0" y2="10.0" /><path d="M 100.0 14.0 a86.0,86.0 0 0,1 42.46469731375804,11.215312516191453" fill="none" id="id85" stroke="none" /><text fill="#e1ed5e" style="font-size:6.75px; font-family:Arial;" text-anchor="middle"><textPath startOffset="22.20632615414155" xlink:href="#id85">January</textPath></text><line stroke="#e1ed5e" stroke-width="0.3" x1="143.23703022742887" x2="145.7803849466894" y1="26.81831364943548" y2="22.513508569990506" /><path d="M 143.74570117128098 25.957352633546492 a86.0,86.0 0 0,1 28.547481713284135,27.462654790039103" fill="none" id="id86" stroke="none" /><text fill="#e1ed5e" style="font-size:6.75px; font-family:Arial;" text-anchor="middle"><textPath startOffset="19.985693538727396" xlink:href="#id86">February</textPath></text><path d="M 111.60114157652 82.49532879139004 l 22.73054807028708 -34.29755319659104 a62.14608086863953,62.14608086863953 0 0,0 0.8866035280607535,0.5986386598594902 l -23.317556292754375 33.90120262443288" fill="#73ff27" stroke="none" /><path d="M 116.15771136456269 86.58626213691792 l 21.16088424556566 -17.567249953701797 a48.50256884347469,48.50256884347469 0 0,0 0.5277576247096075,0.646968445130008 l -21.460140362351677 17.20039733896369" fill="#ffaa0f" stroke="none" /><path d="M 116.38621287248628 86.86637796730983 l 21.925447217776146 -17.573342839911362 a49.09888991167715,49.09888991167715 0 0,0 0.5228936369577514,0.6640218182561306 l -22.224694935327864 17.193328627702194" fill="#ffb510" stroke="none" /><path d="M 116.82858285166822 87.43820079747576 l 19.88117446100677 -14.840424989485271 a45.80925859064568,45.80925859064568 0 0,0 0.4662452978024917,0.6359580622255941 l -20.133682371322884 14.496004483588182" fill="#ff780b" stroke="none" /><path d="M 117.45458315368197 88.32363383020206 l 22.559528469059742 -15.091355244834752 a48.141874067059526,48.141874067059526 0 0,0 0.45483379976569854,0.6927430813965265 l -22.815958904183365 14.700794099460552" fill="#ffa40f" stroke="none" /><path d="M 117.65298651832404 88.62581576622439 l 23.620451820923922 -15.219145520636582 a49.098899170659706,49.098899170659706 0 0,0 0.4516453511654185,0.714394482678004 l -23.878924768335295 14.810303390244371" fill="#ffb510" stroke="none" /><line stroke="#e1ed5e" stroke-width="0.3" x1="172.23445277983987" x2="176.4835382374775" y1="55.19839476539836" y2="52.563006222186495" /><path d="M 173.08426987136738 54.67131705675599 a86.0,86.0 0 0,1 12.851231095245387,41.99856678651699" fill="none" id="id87" stroke="none" /><text fill="#e1ed5e" style="font-size:6.75px; font-family:Arial;" text-anchor="middle"><textPath startOffset="22.20632615414155" xlink:href="#id87">March</textPath></text><path d="M 117.84615892207809 88.93136811851018 l 19.37189871330606 -12.014933669442128 a43.79537432988726,43.79537432988726 0 0,0 0.39183137832032705,0.6440677608346908 l -19.57584588991261 11.679698135400356" fill="#ff5207" stroke="none" /><path d="M 118.21658344932153 89.55222093294921 l 23.244129559216365 -13.331233648516134 a47.795733793963635,47.795733793963635 0 0,0 0.4031737628772233,0.7172011368211798 l -23.47016096338602 12.92914900176016" fill="#ff9d0e" stroke="none" /><path d="M 118.56541770881063 90.18545643968196 l 38.41399359397414 -20.307424231824115 a64.4514255550858,64.4514255550858 0 0,0 0.510058045078013,0.9852697948756781 l -38.75786107221227 19.64318171468809" fill="#52ff2b" stroke="none" /><path d="M 118.89224826269711 90.83032412892265 l 24.484049660095895 -11.883752334429088 a48.215661985409994,48.215661985409994 0 0,0 0.35597349139682577,0.7497709574403674 l -24.684981345334474 11.460538961348181" fill="#ffa50f" stroke="none" /><path d="M 119.04729006885535 91.15688171328212 l 22.655576191304117 -10.518343522317737 a45.978204159095775,45.978204159095775 0 0,0 0.32709700816929105,0.7207148991495553 l -22.833275516436757 10.126806614326119" fill="#ff7b0b" stroke="none" /><path d="M 119.196687751892 91.48605970444005 l 17.097610920777257 -7.5829768373382125 a39.70373858120054,39.70373858120054 0 0,0 0.27170457562362377,0.627131621452101 l -17.22560620624356 7.287546071299508" fill="#ff0000" stroke="none" /><path d="M 119.34039704204932 91.81776055985345 l 23.77198033841749 -10.057085936369049 a46.81185825820411,46.81185825820411 0 0,0 0.30757243981854443,0.7448110594476923 l -23.941574465122233 9.646400306468054" fill="#ff8b0c" stroke="none" /><path d="M 119.7369772167798 92.82701384747503 l 22.200370949483734 -8.068254406565393 a44.62103298892204,44.62103298892204 0 0,0 0.2561394313284956,0.7241406644724269 l -22.33596346162204 7.684916115666351" fill="#ff6209" stroke="none" /><path d="M 120.67395015179393 96.31383870115 l 24.505620029334924 -4.36934729421408 a45.8920993248781,45.8920993248781 0 0,0 0.1319684975789723,0.7788855430194142 l -24.577200388434118 3.946875962878828" fill="#ff7a0b" stroke="none" /><path d="M 120.73433829027371 96.67025291283417 l 26.608875662934842 -4.273144625646283 a47.94980573282887,47.94980573282887 0 0,0 0.1238568748445923,0.8160620537876317 l -26.678488431218735 3.8144834594665684" fill="#ffa00e" stroke="none" /><path d="M 120.87857604477298 97.74499172005257 l 30.73109112528347 -3.3191375116159976 a51.9098145509075,51.9098145509075 0 0,0 0.08830322766956598,0.8892014519312571 l -30.783671478635263 2.7896605289803054" fill="#ffe715" stroke="none" /><path d="M 120.91429891909075 98.10471618934814 l 30.89728830113648 -2.799956648641658 a52.02389694409485,52.02389694409485 0 0,0 0.07314440052361001,0.8925469543606982 l -30.940907185479585 2.2676957770731914" fill="#ffe915" stroke="none" /><path d="M 120.98425023603335 99.18683210126433 l 62.95275070810006 -2.4395036962070047 a84.0,84.0 0 0,0 0.04355322217741975,1.4453194103000038 l -62.98541562473312 1.355514138482002" fill="#4dd2ff" stroke="none" /><line stroke="#e1ed5e" stroke-width="0.3" x1="184.98032266829074" x2="189.97916517819016" y1="98.17113171792111" y2="98.06355123074" /><path d="M 185.9800911702706 98.14961562048488 a86.0,86.0 0 0,1 -9.607161424134198,41.387399972396054" fill="none" id="id88" stroke="none" /><text fill="#e1ed5e" style="font-size:6.75px; font-family:Arial;" text-anchor="middle"><textPath startOffset="21.466115282336823" xlink:href="#id88">April</textPath></text><line stroke="#e1ed5e" stroke-width="0.3" x1="174.80103733775053" x2="179.2010983576182" y1="140.37084112569926" y2="142.7455964860345" /><path d="M 175.68104954172406 140.8457921977663 a86.0,86.0 0 0,1 -30.038265399797805,32.042727171017184" fill="none" id="id89" stroke="none" /><text fill="#e1ed5e" style="font-size:6.75px; font-family:Arial;" text-anchor="middle"><textPath startOffset="22.206326154141568" xlink:href="#id89">May</textPath></text><line stroke="#e1ed5e" stroke-width="0.3" x1="143.8653032363475" x2="146.44561519142675" y1="172.8068346515853" y2="177.08958963109032" /><path d="M 144.38136562736335 173.6633856474863 a86.0,86.0 0 0,1 -40.68145358897372,12.25698825130547" fill="none" id="id90" stroke="none" /><text fill="#e1ed5e" style="font-size:6.75px; font-family:Arial;" text-anchor="middle"><textPath startOffset="21.466115282336833" xlink:href="#id90">June</textPath></text><line stroke="#e1ed5e" stroke-width="0.3" x1="102.19456741930631" x2="102.32365962044197" y1="184.97166512339345" y2="189.96999836594603" /><path d="M 102.22038585953345 185.97133177190398 a86.0,86.0 0 0,1 -42.740103519485714,-10.115201625700543" fill="none" id="id91" stroke="none" /><text fill="#e1ed5e" style="font-size:6.75px; font-family:Arial;" text-anchor="middle"><textPath startOffset="22.20632615414155" xlink:href="#id91">July</textPath></text><line stroke="#e1ed5e" stroke-width="0.3" x1="58.666819895761336" x2="56.23545636021788" y1="174.27360380694188" y2="178.64263932499728" /><path d="M 58.180547188652646 175.14741091055294 a86.0,86.0 0 0,1 -31.652253787137756,-30.449443065178592" fill="none" id="id92" stroke="none" /><text fill="#e1ed5e" style="font-size:6.75px; font-family:Arial;" text-anchor="middle"><textPath startOffset="22.20632615414155" xlink:href="#id92">August</textPath></text><line stroke="#e1ed5e" stroke-width="0.3" x1="26.63291911575756" x2="22.317208475507996" y1="142.92168965132927" y2="145.44649492493687" /><path d="M 25.769776987707644 143.4266507060508 a86.0,86.0 0 0,1 -11.730757126820373,-40.83630448921669" fill="none" id="id93" stroke="none" /><text fill="#e1ed5e" style="font-size:6.75px; font-family:Arial;" text-anchor="middle"><textPath startOffset="21.46611528233685" xlink:href="#id93">September</textPath></text><line stroke="#e1ed5e" stroke-width="0.3" x1="15.007084014347285" x2="10.007500721073583" y1="101.09737516637583" y2="101.16192664675087" /><path d="M 14.007167355692545 101.11028546245083 a86.0,86.0 0 0,1 10.666146001902534,-42.60595125391555" fill="none" id="id94" stroke="none" /><text fill="#e1ed5e" style="font-size:6.75px; font-family:Arial;" text-anchor="middle"><textPath startOffset="22.20632615414155" xlink:href="#id94">October</textPath></text><line stroke="#e1ed5e" stroke-width="0.3" x1="26.266209847984243" x2="21.928928074336255" y1="57.711370442889674" y2="55.22380399835377" /><path d="M 25.398753493254645 57.213857153982495 a86.0,86.0 0 0,1 29.58750427330803,-30.492523968695096" fill="none" id="id95" stroke="none" /><text fill="#e1ed5e" style="font-size:6.75px; font-family:Arial;" text-anchor="middle"><textPath startOffset="21.46611528233685" xlink:href="#id95">November</textPath></text><line stroke="#e1ed5e" stroke-width="0.3" x1="56.762969772571076" x2="54.21961505331055" y1="26.818313649435495" y2="22.513508569990535" /><path d="M 56.25429882871897 25.957352633546506 a86.0,86.0 0 0,1 42.265352541879196,-11.944610805530505" fill="none" id="id96" stroke="none" /><text fill="#e1ed5e" style="font-size:6.75px; font-family:Arial;" text-anchor="middle"><textPath startOffset="22.20632615414155" xlink:href="#id96">December</textPath></text></svg>